<svg width="720" height="520" viewBox="0 0 720 520" fill="none" xmlns="http://www.w3.org/2000/svg">
  <path d="M693 20C642 106 655 198 714 259C627 248 553 288 514 373C484 284 417 231 322 227C394 172 425 92 402 5C476 59 584 60 693 20Z" fill="#B98B2F" fill-opacity=".18"/>
  <path d="M515 76C476 132 480 198 526 242C461 236 403 264 375 326C352 261 302 222 232 221C285 181 307 121 291 58C345 97 428 105 515 76Z" stroke="#9E2F3C" stroke-opacity=".28" stroke-width="2"/>
  <path d="M171 91C198 132 199 178 174 217C215 191 261 189 302 216C276 176 276 130 303 91C261 116 214 116 171 91Z" fill="#1F7A68" fill-opacity=".12"/>
  <path d="M62 313C106 343 153 343 195 314C166 358 166 406 196 448C151 419 104 419 62 449C91 405 91 358 62 313Z" stroke="#1F416D" stroke-opacity=".22" stroke-width="2"/>
  <path d="M610 397C633 411 658 411 681 397C666 420 666 445 682 467C657 452 633 452 610 468C625 444 625 420 610 397Z" fill="#9E2F3C" fill-opacity=".12"/>
</svg>
